<?xml version="1.0" encoding="utf-8"?>
<svg id="master-artboard" viewBox="0 0 1400 980" version="1.1" xmlns="http://www.w3.org/2000/svg" x="0px" y="0px" style="enable-background:new 0 0 1400 980;" width="1400px" height="980px"><rect id="ee-background" x="0" y="0" width="1400" height="980" style="fill: white; fill-opacity: 0; pointer-events: none;"/><path d="M 354.25128173828125 388.9501037597656 L 673.9758911132812 133.66608428955078 L 1023.4421997070312 174.56109619140625 L 1094.0789794921875 297.2460632324219 L 709.9140625 251.39414978027344 L 412.4956970214844 500.48193359375 C 412.4956970214844 500.48193359375 353.0120544433594 386.47161865234375 354.25128173828125 388.9501037597656 Z" style="fill: rgb(0, 0, 0); fill-opacity: 0; stroke: rgb(255, 255, 255); stroke-opacity: 1; stroke-width: 12; paint-order: stroke;" transform="matrix(0.987819492816925, -0.15560439229011536, 0.15560439229011536, 0.987819492816925, -168.95268821330524, 125.25052626008807)"/><path d="M 1084.16552734375 125.6110610961914" style="fill: rgb(0, 0, 0); fill-opacity: 1; stroke: rgb(0, 0, 0); stroke-opacity: 1; stroke-width: 10; paint-order: fill;" transform="matrix(1, 0, 0, 1, -73.11534133922652, -13.631673809008348)"/><path d="M 353.06817626953125 365.06158447265625 L 670.326171875 135.50637817382812 L 1040.301513671875 192.73583984375 L 1100.2752685546875 318.3132019042969 L 714.8709106445312 256.35113525390625 L 400.103271484375 479.4148254394531 C 400.103271484375 479.4148254394531 351.8289489746094 362.5830993652344 353.06817626953125 365.06158447265625 Z" style="fill: rgb(255, 255, 255); fill-opacity: 0; stroke: rgb(255, 255, 255); stroke-opacity: 1; stroke-width: 12; paint-order: stroke;" transform="matrix(-0.9688926339149475, 0.24748192727565765, -0.24748192727565765, -0.9688926339149475, 1450.9445570218065, 709.7583134408626)"/><path d="M 1084.16552734375 125.6110610961914" style="fill: rgb(0, 0, 0); fill-opacity: 1; stroke: rgb(0, 0, 0); stroke-opacity: 1; stroke-width: 10; paint-order: fill;" transform="matrix(-0.9968398809432983, 0.07943673431873323, -0.07943673431873323, -0.9968398809432983, 1432.8691009339532, 821.9327054376568)"/><path d="M 722.3065795898438 468.8813781738281" style="fill: rgb(0, 0, 0); fill-opacity: 0; stroke: rgb(0, 0, 0); stroke-opacity: 1; stroke-width: 10; paint-order: stroke;"/><path d="M 1006.09326171875 366.0242004394531" style="fill: rgb(0, 0, 0); fill-opacity: 0; stroke: rgb(0, 0, 0); stroke-opacity: 1; stroke-width: 10; paint-order: stroke;"/><path d="M 949.0880737304688 353.63177490234375" style="fill: rgb(0, 0, 0); fill-opacity: 0; stroke: rgb(0, 0, 0); stroke-opacity: 1; stroke-width: 10; paint-order: stroke;"/><path d="M 928.0209350585938 349.9140625" style="fill: rgb(0, 0, 0); fill-opacity: 0; stroke: rgb(0, 0, 0); stroke-opacity: 1; stroke-width: 10; paint-order: stroke;" transform="matrix(1, 0, 0, 1, -4.956972294184823, -7.435458441277277)"/><path d="M 696.282470703125 551.9107055664062" style="fill: rgb(0, 0, 0); fill-opacity: 0; stroke: rgb(0, 0, 0); stroke-opacity: 1; stroke-width: 10; paint-order: stroke;"/><path d="M 998.6577758789062 362.3064880371094 L 864.8195190429688 341.2393493652344 L 547.5733032226562 602.7196655273438" style="fill: rgb(0, 0, 0); fill-opacity: 0; stroke: rgb(255, 255, 255); stroke-opacity: 1; stroke-width: 12; paint-order: fill;" transform="matrix(0.985489785671234, -0.1697341203689575, 0.1697341203689575, 0.985489785671234, -100.18209092741205, 152.9392521615658)"/><path d="M 977.5906372070312 370.981201171875 L 977.5906372070312 370.981201171875" style="fill: rgb(0, 0, 0); fill-opacity: 0; stroke: rgb(0, 0, 0); stroke-opacity: 1; stroke-width: 12; paint-order: stroke;"/><path d="M 807.8143310546875 274.9399108886719 L 512.8744812011719 516.5923156738281 L 350.53369140625 506.6783447265625" style="fill: rgb(0, 0, 0); fill-opacity: 0; stroke: rgb(255, 255, 255); stroke-opacity: 1; stroke-width: 12; paint-order: fill;" transform="matrix(0.987819492816925, -0.15560439229011536, 0.15560439229011536, 0.987819492816925, -109.54792594523883, 112.12927992219741)"/><path d="M 956.5235595703125 93.39073944091797" style="fill: rgb(0, 0, 0); fill-opacity: 0; stroke: rgb(0, 0, 0); stroke-opacity: 1; stroke-width: 12; paint-order: fill;"/></svg>