<?xml version="1.0" encoding="utf-8"?>
<svg id="master-artboard" viewBox="0 0 1047.9757080078125 205.04904174804688" version="1.1" xmlns="http://www.w3.org/2000/svg" x="0px" y="0px" style="enable-background:new 0 0 336 235.2;" width="1047.9757080078125px" height="205.04904174804688px"><defs><style id="ee-google-fonts">@import url(https://fonts.googleapis.com/css?family=Montserrat:400,700);</style><style id="style-1">@import url(https://fonts.googleapis.com/css?family=Montserrat:400,700);</style></defs><rect id="ee-background" x="0" y="0" width="1047.9757080078125" height="205.04904174804688" style="fill: white; fill-opacity: 0; pointer-events: none;"/><g transform="matrix(1, 0, 0, 1, -225.14627075195312, -310.97552490234375)"><g transform="matrix(0.28564453125, 0, 0, 0.28564453125, 174.14629379568788, 283.36112716918205)"><rect id="rect-1" x="0" y="0" width="1400" height="980" style="fill: white; fill-opacity: 0; pointer-events: none;"/><path d="M 354.25128173828125 388.9501037597656 L 673.9758911132812 133.66608428955078 L 1023.4421997070312 174.56109619140625 L 1094.0789794921875 297.2460632324219 L 709.9140625 251.39414978027344 L 412.4956970214844 500.48193359375 C 412.4956970214844 500.48193359375 353.0120544433594 386.47161865234375 354.25128173828125 388.9501037597656 Z" style="fill: rgb(0, 0, 0); fill-opacity: 0; stroke: rgb(0, 175, 209); stroke-opacity: 1; stroke-width: 12; paint-order: stroke;" transform="matrix(0.987819492816925, -0.15560439229011536, 0.15560439229011536, 0.987819492816925, -168.95268821330524, 125.25052626008807)"/><path d="M 1084.16552734375 125.6110610961914" style="fill: rgb(0, 0, 0); fill-opacity: 1; stroke: rgb(0, 0, 0); stroke-opacity: 1; stroke-width: 10; paint-order: fill;" transform="matrix(1, 0, 0, 1, -73.11534133922652, -13.631673809008348)"/><path d="M 353.06817626953125 365.06158447265625 L 670.326171875 135.50637817382812 L 1040.301513671875 192.73583984375 L 1100.2752685546875 318.3132019042969 L 714.8709106445312 256.35113525390625 L 400.103271484375 479.4148254394531 C 400.103271484375 479.4148254394531 351.8289489746094 362.5830993652344 353.06817626953125 365.06158447265625 Z" style="fill: rgb(255, 255, 255); fill-opacity: 0; stroke: rgb(254, 149, 49); stroke-opacity: 1; stroke-width: 12; paint-order: stroke;" transform="matrix(-0.9688926339149475, 0.24748192727565765, -0.24748192727565765, -0.9688926339149475, 1450.9445570218065, 709.7583134408626)"/><path d="M 1084.16552734375 125.6110610961914" style="fill: rgb(0, 0, 0); fill-opacity: 1; stroke: rgb(0, 0, 0); stroke-opacity: 1; stroke-width: 10; paint-order: fill;" transform="matrix(-0.9968398809432983, 0.07943673431873323, -0.07943673431873323, -0.9968398809432983, 1432.8691009339532, 821.9327054376568)"/><path d="M 722.3065795898438 468.8813781738281" style="fill: rgb(0, 0, 0); fill-opacity: 0; stroke: rgb(0, 0, 0); stroke-opacity: 1; stroke-width: 10; paint-order: stroke;"/><path d="M 1006.09326171875 366.0242004394531" style="fill: rgb(0, 0, 0); fill-opacity: 0; stroke: rgb(0, 0, 0); stroke-opacity: 1; stroke-width: 10; paint-order: stroke;"/><path d="M 949.0880737304688 353.63177490234375" style="fill: rgb(0, 0, 0); fill-opacity: 0; stroke: rgb(0, 0, 0); stroke-opacity: 1; stroke-width: 10; paint-order: stroke;"/><path d="M 928.0209350585938 349.9140625" style="fill: rgb(0, 0, 0); fill-opacity: 0; stroke: rgb(0, 0, 0); stroke-opacity: 1; stroke-width: 10; paint-order: stroke;" transform="matrix(1, 0, 0, 1, -4.956972294184823, -7.435458441277277)"/><path d="M 696.282470703125 551.9107055664062" style="fill: rgb(0, 0, 0); fill-opacity: 0; stroke: rgb(0, 0, 0); stroke-opacity: 1; stroke-width: 10; paint-order: stroke;"/><path d="M 998.6577758789062 362.3064880371094 L 864.8195190429688 341.2393493652344 L 547.5733032226562 602.7196655273438" style="fill: rgb(0, 0, 0); fill-opacity: 0; stroke: rgb(254, 149, 49); stroke-opacity: 1; stroke-width: 12; paint-order: fill;" transform="matrix(0.985489785671234, -0.1697341203689575, 0.1697341203689575, 0.985489785671234, -100.18209092741205, 152.9392521615658)"/><path d="M 977.5906372070312 370.981201171875 L 977.5906372070312 370.981201171875" style="fill: rgb(0, 0, 0); fill-opacity: 0; stroke: rgb(0, 0, 0); stroke-opacity: 1; stroke-width: 12; paint-order: stroke;"/><path d="M 807.8143310546875 274.9399108886719 L 512.8744812011719 516.5923156738281 L 350.53369140625 506.6783447265625" style="fill: rgb(0, 0, 0); fill-opacity: 0; stroke: rgb(0, 175, 209); stroke-opacity: 1; stroke-width: 12; paint-order: fill;" transform="matrix(0.987819492816925, -0.15560439229011536, 0.15560439229011536, 0.987819492816925, -109.54792594523883, 112.12927992219741)"/><path d="M 956.5235595703125 93.39073944091797" style="fill: rgb(0, 0, 0); fill-opacity: 0; stroke: rgb(0, 0, 0); stroke-opacity: 1; stroke-width: 12; paint-order: fill;"/></g><path d="M 1109.855224609375 20.93466567993164 L 1109.855224609375 18.38466453552246 L 1118.0152587890625 18.38466453552246 L 1118.0152587890625 29.454666137695312 C 1118.0152587890625 31.40799903869629 1117.5185546875 32.87133026123047 1116.5252685546875 33.84466552734375 C 1115.5318603515625 34.817996978759766 1114.2618408203125 35.304664611816406 1112.7152099609375 35.304664611816406 C 1110.7618408203125 35.304664611816406 1109.09521484375 34.61800003051758 1107.7152099609375 33.244667053222656 L 1109.3251953125 31.014665603637695 C 1110.411865234375 32.054664611816406 1111.4752197265625 32.57466506958008 1112.5152587890625 32.57466506958008 C 1113.2552490234375 32.57466506958008 1113.88525390625 32.32466506958008 1114.4052734375 31.824665069580078 C 1114.9251708984375 31.331331253051758 1115.1851806640625 30.587997436523438 1115.1851806640625 29.59466552734375 L 1115.1851806640625 20.93466567993164 L 1109.855224609375 20.93466567993164 ZM 1133.2998046875 22.34466552734375 C 1133.2998046875 22.34466552734375 1133.0130615234375 22.05133056640625 1132.4398193359375 21.464664459228516 C 1131.873046875 20.8713321685791 1130.7564697265625 20.574665069580078 1129.0897216796875 20.574665069580078 C 1127.423095703125 20.574665069580078 1126.019775390625 21.16466522216797 1124.8797607421875 22.34466552734375 C 1123.733154296875 23.53133201599121 1123.1597900390625 24.967998504638672 1123.1597900390625 26.654664993286133 C 1123.1597900390625 28.341331481933594 1123.733154296875 29.777997970581055 1124.8797607421875 30.964664459228516 C 1126.019775390625 32.15133285522461 1127.423095703125 32.744667053222656 1129.0897216796875 32.744667053222656 C 1130.7564697265625 32.744667053222656 1132.1597900390625 32.15133285522461 1133.2998046875 30.964664459228516 C 1134.4464111328125 29.777997970581055 1135.019775390625 28.341331481933594 1135.019775390625 26.654664993286133 C 1135.019775390625 24.967998504638672 1134.4464111328125 23.53133201599121 1133.2998046875 22.34466552734375 M 1135.3797607421875 32.84466552734375 C 1135.3797607421875 32.84466552734375 1134.9564208984375 33.26133346557617 1134.1097412109375 34.09466552734375 C 1133.2564697265625 34.92133331298828 1131.5831298828125 35.33466339111328 1129.0897216796875 35.33466339111328 C 1126.596435546875 35.33466339111328 1124.499755859375 34.50466537475586 1122.7998046875 32.84466552734375 C 1121.1064453125 31.19133186340332 1120.259765625 29.12799835205078 1120.259765625 26.654664993286133 C 1120.259765625 24.181331634521484 1121.1064453125 22.117998123168945 1122.7998046875 20.464664459228516 C 1124.499755859375 18.81133270263672 1126.596435546875 17.984664916992188 1129.0897216796875 17.984664916992188 C 1131.5831298828125 17.984664916992188 1133.6798095703125 18.81133270263672 1135.3797607421875 20.464664459228516 C 1137.0731201171875 22.117998123168945 1137.9197998046875 24.181331634521484 1137.9197998046875 26.654664993286133 C 1137.9197998046875 29.12799835205078 1137.0731201171875 31.19133186340332 1135.3797607421875 32.84466552734375 ZM 1145.38037109375 20.59466552734375 C 1145.38037109375 20.59466552734375 1145.177001953125 20.59466552734375 1144.7703857421875 20.59466552734375 C 1144.3570556640625 20.59466552734375 1143.886962890625 20.764665603637695 1143.3603515625 21.104663848876953 C 1142.8270263671875 21.437999725341797 1142.560302734375 21.944664001464844 1142.560302734375 22.624664306640625 C 1142.560302734375 23.304664611816406 1142.8270263671875 23.824665069580078 1143.3603515625 24.18466567993164 C 1143.886962890625 24.544666290283203 1145.0103759765625 24.931331634521484 1146.7303466796875 25.34466552734375 C 1148.4503173828125 25.764665603637695 1149.7470703125 26.35133171081543 1150.620361328125 27.104663848876953 C 1151.487060546875 27.85133171081543 1151.9202880859375 28.957998275756836 1151.9202880859375 30.424665451049805 C 1151.9202880859375 31.891332626342773 1151.370361328125 33.077999114990234 1150.2703857421875 33.98466491699219 C 1149.1636962890625 34.89799880981445 1147.713623046875 35.35466384887695 1145.9202880859375 35.35466384887695 C 1143.30029296875 35.35466384887695 1140.9736328125 34.451332092285156 1138.9403076171875 32.6446647644043 L 1140.7203369140625 30.50466537475586 C 1142.4136962890625 31.977998733520508 1144.1737060546875 32.714664459228516 1146.0003662109375 32.714664459228516 C 1146.906982421875 32.714664459228516 1147.63037109375 32.51799774169922 1148.1702880859375 32.124664306640625 C 1148.7037353515625 31.737998962402344 1148.9703369140625 31.217998504638672 1148.9703369140625 30.564664840698242 C 1148.9703369140625 29.917999267578125 1148.7203369140625 29.41466522216797 1148.2203369140625 29.054664611816406 C 1147.713623046875 28.694665908813477 1146.8436279296875 28.367998123168945 1145.6103515625 28.074665069580078 C 1144.376953125 27.77466583251953 1143.4403076171875 27.501331329345703 1142.80029296875 27.25466537475586 C 1142.160400390625 27.007999420166016 1141.5936279296875 26.68466567993164 1141.100341796875 26.284664154052734 C 1140.1070556640625 25.53133201599121 1139.6103515625 24.37799835205078 1139.6103515625 22.824665069580078 C 1139.6103515625 21.277999877929688 1140.1737060546875 20.084665298461914 1141.30029296875 19.244665145874023 C 1142.4337158203125 18.404664993286133 1143.830322265625 17.984664916992188 1145.4903564453125 17.984664916992188 C 1146.563720703125 17.984664916992188 1147.626953125 18.15799903869629 1148.6802978515625 18.50466537475586 C 1149.7403564453125 18.85799789428711 1150.6536865234375 19.354663848876953 1151.4202880859375 19.994665145874023 L 1149.910400390625 22.134666442871094 C 1149.410400390625 21.687999725341797 1148.737060546875 21.3179988861084 1147.890380859375 21.02466583251953 C 1147.043701171875 20.737998962402344 1146.20703125 20.59466552734375 1145.38037109375 20.59466552734375 ZM 1154.2408447265625 35.16466522216797 L 1154.2408447265625 18.38466453552246 L 1157.0709228515625 18.38466453552246 L 1157.0709228515625 25.66466522216797 L 1165.40087890625 25.66466522216797 L 1165.40087890625 18.38466453552246 L 1168.2308349609375 18.38466453552246 L 1168.2308349609375 35.16466522216797 L 1165.40087890625 35.16466522216797 L 1165.40087890625 28.304664611816406 L 1157.0709228515625 28.304664611816406 L 1157.0709228515625 35.16466522216797 L 1154.2408447265625 35.16466522216797 ZM 1175.469482421875 31.324665069580078 C 1175.469482421875 31.324665069580078 1175.6595458984375 31.547998428344727 1176.03955078125 31.994665145874023 C 1176.4261474609375 32.44132995605469 1177.276123046875 32.66466522216797 1178.5894775390625 32.66466522216797 C 1179.8961181640625 32.66466522216797 1180.9361572265625 32.21799850463867 1181.70947265625 31.324665069580078 C 1182.4761962890625 30.431331634521484 1182.8594970703125 29.214664459228516 1182.8594970703125 27.674665451049805 L 1182.8594970703125 18.38466453552246 L 1185.689453125 18.38466453552246 L 1185.689453125 27.794666290283203 C 1185.689453125 30.214664459228516 1185.026123046875 32.07466506958008 1183.699462890625 33.374664306640625 C 1182.372802734375 34.681331634521484 1180.6695556640625 35.33466339111328 1178.5894775390625 35.33466339111328 C 1176.509521484375 35.33466339111328 1174.8028564453125 34.681331634521484 1173.469482421875 33.374664306640625 C 1172.142822265625 32.07466506958008 1171.4794921875 30.214664459228516 1171.4794921875 27.794666290283203 L 1171.4794921875 18.38466453552246 L 1174.3094482421875 18.38466453552246 L 1174.3094482421875 27.674665451049805 C 1174.3094482421875 29.214664459228516 1174.6961669921875 30.431331634521484 1175.469482421875 31.324665069580078 ZM 1190.904052734375 31.34466552734375 L 1189.22412109375 35.16466522216797 L 1186.2041015625 35.16466522216797 L 1193.5941162109375 18.38466453552246 L 1196.6241455078125 18.38466453552246 L 1204.01416015625 35.16466522216797 L 1200.984130859375 35.16466522216797 L 1199.3040771484375 31.34466552734375 L 1190.904052734375 31.34466552734375 M 1198.154052734375 28.734664916992188 L 1195.1041259765625 21.824665069580078 L 1192.0640869140625 28.734664916992188 L 1198.154052734375 28.734664916992188 ZM 1215.6092529296875 20.59466552734375 C 1215.6092529296875 20.59466552734375 1215.4058837890625 20.59466552734375 1214.999267578125 20.59466552734375 C 1214.5859375 20.59466552734375 1214.1158447265625 20.764665603637695 1213.5892333984375 21.104663848876953 C 1213.055908203125 21.437999725341797 1212.7891845703125 21.944664001464844 1212.7891845703125 22.624664306640625 C 1212.7891845703125 23.304664611816406 1213.055908203125 23.824665069580078 1213.5892333984375 24.18466567993164 C 1214.1158447265625 24.544666290283203 1215.2392578125 24.931331634521484 1216.959228515625 25.34466552734375 C 1218.67919921875 25.764665603637695 1219.9759521484375 26.35133171081543 1220.8492431640625 27.104663848876953 C 1221.7159423828125 27.85133171081543 1222.149169921875 28.957998275756836 1222.149169921875 30.424665451049805 C 1222.149169921875 31.891332626342773 1221.5992431640625 33.077999114990234 1220.499267578125 33.98466491699219 C 1219.392578125 34.89799880981445 1217.9425048828125 35.35466384887695 1216.149169921875 35.35466384887695 C 1213.5291748046875 35.35466384887695 1211.2025146484375 34.451332092285156 1209.169189453125 32.6446647644043 L 1210.94921875 30.50466537475586 C 1212.642578125 31.977998733520508 1214.402587890625 32.714664459228516 1216.229248046875 32.714664459228516 C 1217.1358642578125 32.714664459228516 1217.8592529296875 32.51799774169922 1218.399169921875 32.124664306640625 C 1218.9326171875 31.737998962402344 1219.19921875 31.217998504638672 1219.19921875 30.564664840698242 C 1219.19921875 29.917999267578125 1218.94921875 29.41466522216797 1218.44921875 29.054664611816406 C 1217.9425048828125 28.694665908813477 1217.072509765625 28.367998123168945 1215.8392333984375 28.074665069580078 C 1214.6058349609375 27.77466583251953 1213.669189453125 27.501331329345703 1213.0291748046875 27.25466537475586 C 1212.3892822265625 27.007999420166016 1211.822509765625 26.68466567993164 1211.3292236328125 26.284664154052734 C 1210.3359375 25.53133201599121 1209.8392333984375 24.37799835205078 1209.8392333984375 22.824665069580078 C 1209.8392333984375 21.277999877929688 1210.402587890625 20.084665298461914 1211.5291748046875 19.244665145874023 C 1212.66259765625 18.404664993286133 1214.0592041015625 17.984664916992188 1215.71923828125 17.984664916992188 C 1216.7926025390625 17.984664916992188 1217.8558349609375 18.15799903869629 1218.9091796875 18.50466537475586 C 1219.96923828125 18.85799789428711 1220.882568359375 19.354663848876953 1221.649169921875 19.994665145874023 L 1220.1392822265625 22.134666442871094 C 1219.6392822265625 21.687999725341797 1218.9659423828125 21.3179988861084 1218.1192626953125 21.02466583251953 C 1217.2725830078125 20.737998962402344 1216.4359130859375 20.59466552734375 1215.6092529296875 20.59466552734375 ZM 1224.4697265625 18.38466453552246 L 1227.2998046875 18.38466453552246 L 1227.2998046875 35.16466522216797 L 1224.4697265625 35.16466522216797 L 1224.4697265625 18.38466453552246 ZM 1235.83837890625 20.59466552734375 C 1235.83837890625 20.59466552734375 1235.635009765625 20.59466552734375 1235.2283935546875 20.59466552734375 C 1234.8150634765625 20.59466552734375 1234.344970703125 20.764665603637695 1233.818359375 21.104663848876953 C 1233.2850341796875 21.437999725341797 1233.018310546875 21.944664001464844 1233.018310546875 22.624664306640625 C 1233.018310546875 23.304664611816406 1233.2850341796875 23.824665069580078 1233.818359375 24.18466567993164 C 1234.344970703125 24.544666290283203 1235.4683837890625 24.931331634521484 1237.1883544921875 25.34466552734375 C 1238.9083251953125 25.764665603637695 1240.205078125 26.35133171081543 1241.078369140625 27.104663848876953 C 1241.945068359375 27.85133171081543 1242.3782958984375 28.957998275756836 1242.3782958984375 30.424665451049805 C 1242.3782958984375 31.891332626342773 1241.828369140625 33.077999114990234 1240.7283935546875 33.98466491699219 C 1239.6217041015625 34.89799880981445 1238.171630859375 35.35466384887695 1236.3782958984375 35.35466384887695 C 1233.75830078125 35.35466384887695 1231.431640625 34.451332092285156 1229.3983154296875 32.6446647644043 L 1231.1783447265625 30.50466537475586 C 1232.8717041015625 31.977998733520508 1234.6317138671875 32.714664459228516 1236.4583740234375 32.714664459228516 C 1237.364990234375 32.714664459228516 1238.08837890625 32.51799774169922 1238.6282958984375 32.124664306640625 C 1239.1617431640625 31.737998962402344 1239.4283447265625 31.217998504638672 1239.4283447265625 30.564664840698242 C 1239.4283447265625 29.917999267578125 1239.1783447265625 29.41466522216797 1238.6783447265625 29.054664611816406 C 1238.171630859375 28.694665908813477 1237.3016357421875 28.367998123168945 1236.068359375 28.074665069580078 C 1234.8349609375 27.77466583251953 1233.8983154296875 27.501331329345703 1233.25830078125 27.25466537475586 C 1232.618408203125 27.007999420166016 1232.0516357421875 26.68466567993164 1231.558349609375 26.284664154052734 C 1230.5650634765625 25.53133201599121 1230.068359375 24.37799835205078 1230.068359375 22.824665069580078 C 1230.068359375 21.277999877929688 1230.6317138671875 20.084665298461914 1231.75830078125 19.244665145874023 C 1232.8917236328125 18.404664993286133 1234.288330078125 17.984664916992188 1235.9483642578125 17.984664916992188 C 1237.021728515625 17.984664916992188 1238.0849609375 18.15799903869629 1239.1383056640625 18.50466537475586 C 1240.1983642578125 18.85799789428711 1241.1116943359375 19.354663848876953 1241.8782958984375 19.994665145874023 L 1240.368408203125 22.134666442871094 C 1239.868408203125 21.687999725341797 1239.195068359375 21.3179988861084 1238.348388671875 21.02466583251953 C 1237.501708984375 20.737998962402344 1236.6650390625 20.59466552734375 1235.83837890625 20.59466552734375 ZM 1244.6988525390625 35.16466522216797 L 1244.6988525390625 18.38466453552246 L 1247.5289306640625 18.38466453552246 L 1247.5289306640625 32.474666595458984 L 1255.1888427734375 32.474666595458984 L 1255.1888427734375 35.16466522216797 L 1244.6988525390625 35.16466522216797 ZM 1268.8734130859375 18.38466453552246 L 1268.8734130859375 21.054664611816406 L 1259.9234619140625 21.054664611816406 L 1259.9234619140625 25.494665145874023 L 1267.96337890625 25.494665145874023 L 1267.96337890625 28.014665603637695 L 1259.9234619140625 28.014665603637695 L 1259.9234619140625 32.50466537475586 L 1269.1634521484375 32.50466537475586 L 1269.1634521484375 35.16466522216797 L 1257.0933837890625 35.16466522216797 L 1257.0933837890625 18.38466453552246 L 1268.8734130859375 18.38466453552246 ZM 1278.2000732421875 35.16466522216797 L 1275.320068359375 35.16466522216797 L 1275.320068359375 28.544666290283203 L 1269.080078125 18.38466453552246 L 1272.1700439453125 18.38466453552246 L 1276.760009765625 26.02466583251953 L 1281.3399658203125 18.38466453552246 L 1284.4400634765625 18.38466453552246 L 1278.2000732421875 28.544666290283203 L 1278.2000732421875 35.16466522216797 Z" transform="matrix(4.203805923461914, 0, 0, 4.203805923461914, -4143.5859375, 260.140869140625)" style="fill: rgb(255, 255, 255); white-space: pre; color: rgb(51, 51, 51);"/><path d="M 1111.865234375 15.894068717956543 C 1113.6851806640625 15.894068717956543 1115.0819091796875 16.334068298339844 1116.05517578125 17.214069366455078 C 1117.0352783203125 18.10073471069336 1117.5252685546875 19.334068298339844 1117.5252685546875 20.91407012939453 C 1117.5252685546875 22.487401962280273 1117.0518798828125 23.73406982421875 1116.105224609375 24.654069900512695 C 1115.1585693359375 25.57406997680664 1113.7052001953125 26.034069061279297 1111.7452392578125 26.034069061279297 L 1108.38525390625 26.034069061279297 L 1108.38525390625 15.894068717956543 L 1111.865234375 15.894068717956543 M 1115.795166015625 20.954069137573242 C 1115.795166015625 18.634069442749023 1114.4652099609375 17.47406768798828 1111.80517578125 17.47406768798828 L 1110.09521484375 17.47406768798828 L 1110.09521484375 24.424068450927734 L 1111.9952392578125 24.424068450927734 C 1113.221923828125 24.424068450927734 1114.161865234375 24.130735397338867 1114.815185546875 23.544069290161133 C 1115.468505859375 22.9574031829834 1115.795166015625 22.09406852722168 1115.795166015625 20.954069137573242 ZM 1125.6619873046875 15.894068717956543 L 1125.6619873046875 17.504070281982422 L 1120.251953125 17.504070281982422 L 1120.251953125 20.18406867980957 L 1125.1119384765625 20.18406867980957 L 1125.1119384765625 21.714069366455078 L 1120.251953125 21.714069366455078 L 1120.251953125 24.424068450927734 L 1125.8419189453125 24.424068450927734 L 1125.8419189453125 26.034069061279297 L 1118.5419921875 26.034069061279297 L 1118.5419921875 15.894068717956543 L 1125.6619873046875 15.894068717956543 ZM 1131.4715576171875 26.034069061279297 L 1129.551513671875 26.034069061279297 L 1125.4715576171875 15.894068717956543 L 1127.3914794921875 15.894068717956543 L 1130.511474609375 23.464069366455078 L 1133.6314697265625 15.894068717956543 L 1135.54150390625 15.894068717956543 L 1131.4715576171875 26.034069061279297 ZM 1142.9285888671875 15.894068717956543 L 1142.9285888671875 17.504070281982422 L 1137.5185546875 17.504070281982422 L 1137.5185546875 20.18406867980957 L 1142.3785400390625 20.18406867980957 L 1142.3785400390625 21.714069366455078 L 1137.5185546875 21.714069366455078 L 1137.5185546875 24.424068450927734 L 1143.1085205078125 24.424068450927734 L 1143.1085205078125 26.034069061279297 L 1135.80859375 26.034069061279297 L 1135.80859375 15.894068717956543 L 1142.9285888671875 15.894068717956543 ZM 1144.108154296875 26.034069061279297 L 1144.108154296875 15.894068717956543 L 1145.818115234375 15.894068717956543 L 1145.818115234375 24.404069900512695 L 1150.4481201171875 24.404069900512695 L 1150.4481201171875 26.034069061279297 L 1144.108154296875 26.034069061279297 ZM 1158.07080078125 18.284069061279297 C 1158.07080078125 18.284069061279297 1157.8974609375 18.104068756103516 1157.55078125 17.744068145751953 C 1157.2041015625 17.390735626220703 1156.5274658203125 17.214069366455078 1155.520751953125 17.214069366455078 C 1154.520751953125 17.214069366455078 1153.674072265625 17.570735931396484 1152.9808349609375 18.284069061279297 C 1152.2874755859375 19.00406837463379 1151.9407958984375 19.874069213867188 1151.9407958984375 20.89406967163086 C 1151.9407958984375 21.91407012939453 1152.2874755859375 22.78073501586914 1152.9808349609375 23.494068145751953 C 1153.674072265625 24.2074031829834 1154.520751953125 24.564069747924805 1155.520751953125 24.564069747924805 C 1156.5274658203125 24.564069747924805 1157.37744140625 24.2074031829834 1158.07080078125 23.494068145751953 C 1158.76416015625 22.78073501586914 1159.11083984375 21.91407012939453 1159.11083984375 20.89406967163086 C 1159.11083984375 19.874069213867188 1158.76416015625 19.00406837463379 1158.07080078125 18.284069061279297 M 1159.330810546875 24.634069442749023 C 1159.330810546875 24.634069442749023 1159.0740966796875 24.884069442749023 1158.560791015625 25.384069442749023 C 1158.0474853515625 25.884069442749023 1157.0341796875 26.134069442749023 1155.520751953125 26.134069442749023 C 1154.01416015625 26.134069442749023 1152.7474365234375 25.634069442749023 1151.7208251953125 24.634069442749023 C 1150.694091796875 23.634069442749023 1150.1807861328125 22.387401580810547 1150.1807861328125 20.89406967163086 C 1150.1807861328125 19.39406967163086 1150.694091796875 18.14406967163086 1151.7208251953125 17.14406967163086 C 1152.7474365234375 16.14406967163086 1154.01416015625 15.644068717956543 1155.520751953125 15.644068717956543 C 1157.0341796875 15.644068717956543 1158.3040771484375 16.14406967163086 1159.330810546875 17.14406967163086 C 1160.350830078125 18.14406967163086 1160.86083984375 19.39406967163086 1160.86083984375 20.89406967163086 C 1160.86083984375 22.387401580810547 1160.350830078125 23.634069442749023 1159.330810546875 24.634069442749023 ZM 1165.319091796875 15.894068717956543 C 1166.859130859375 15.894068717956543 1167.982421875 16.187402725219727 1168.6890869140625 16.77406883239746 C 1169.395751953125 17.367401123046875 1169.7490234375 18.277402877807617 1169.7490234375 19.50406837463379 C 1169.7490234375 20.730735778808594 1169.3857421875 21.630735397338867 1168.6590576171875 22.204069137573242 C 1167.9390869140625 22.777402877807617 1166.835693359375 23.064069747924805 1165.34912109375 23.064069747924805 L 1163.549072265625 23.064069747924805 L 1163.549072265625 26.034069061279297 L 1161.839111328125 26.034069061279297 L 1161.839111328125 15.894068717956543 L 1165.319091796875 15.894068717956543 M 1165.5390625 21.50406837463379 C 1166.4857177734375 21.50406837463379 1167.1290283203125 21.32406997680664 1167.4691162109375 20.964069366455078 C 1167.8157958984375 20.597402572631836 1167.9891357421875 20.064069747924805 1167.9891357421875 19.36406898498535 C 1167.9891357421875 18.66407012939453 1167.7724609375 18.167402267456055 1167.339111328125 17.874069213867188 C 1166.8990478515625 17.58740234375 1166.2156982421875 17.444068908691406 1165.2890625 17.444068908691406 L 1163.549072265625 17.444068908691406 L 1163.549072265625 21.50406837463379 L 1165.5390625 21.50406837463379 ZM 1177.6939697265625 15.894068717956543 L 1177.6939697265625 17.504070281982422 L 1172.283935546875 17.504070281982422 L 1172.283935546875 20.18406867980957 L 1177.1439208984375 20.18406867980957 L 1177.1439208984375 21.714069366455078 L 1172.283935546875 21.714069366455078 L 1172.283935546875 24.424068450927734 L 1177.8739013671875 24.424068450927734 L 1177.8739013671875 26.034069061279297 L 1170.573974609375 26.034069061279297 L 1170.573974609375 15.894068717956543 L 1177.6939697265625 15.894068717956543 ZM 1186.9635009765625 19.18406867980957 C 1186.9635009765625 20.857402801513672 1186.2335205078125 21.910736083984375 1184.7735595703125 22.34406852722168 L 1187.4334716796875 26.034069061279297 L 1185.2535400390625 26.034069061279297 L 1182.83349609375 22.624069213867188 L 1180.58349609375 22.624069213867188 L 1180.58349609375 26.034069061279297 L 1178.87353515625 26.034069061279297 L 1178.87353515625 15.894068717956543 L 1182.6435546875 15.894068717956543 C 1184.190185546875 15.894068717956543 1185.296875 16.154067993164062 1185.9635009765625 16.674068450927734 C 1186.630126953125 17.194068908691406 1186.9635009765625 18.03073501586914 1186.9635009765625 19.18406867980957 M 1182.7135009765625 21.07406997680664 C 1183.68017578125 21.07406997680664 1184.3402099609375 20.924068450927734 1184.6934814453125 20.624069213867188 C 1185.0401611328125 20.32406997680664 1185.2135009765625 19.840736389160156 1185.2135009765625 19.174068450927734 C 1185.2135009765625 18.514068603515625 1185.033447265625 18.06073570251465 1184.6734619140625 17.814067840576172 C 1184.3134765625 17.567401885986328 1183.6768798828125 17.444068908691406 1182.7635498046875 17.444068908691406 L 1180.58349609375 17.444068908691406 L 1180.58349609375 21.07406997680664 L 1182.7135009765625 21.07406997680664 ZM 1190.8829345703125 28.25406837463379 L 1190.8829345703125 14.68406867980957 L 1192.0928955078125 14.68406867980957 L 1192.0928955078125 28.25406837463379 L 1190.8829345703125 28.25406837463379 ZM 1198.0684814453125 17.48406982421875 L 1198.0684814453125 20.27406883239746 L 1202.5684814453125 20.27406883239746 L 1202.5684814453125 21.854068756103516 L 1198.0684814453125 21.854068756103516 L 1198.0684814453125 26.034069061279297 L 1196.3585205078125 26.034069061279297 L 1196.3585205078125 15.894068717956543 L 1203.1185302734375 15.894068717956543 L 1203.1085205078125 17.48406982421875 L 1198.0684814453125 17.48406982421875 ZM 1212.0225830078125 19.18406867980957 C 1212.0225830078125 20.857402801513672 1211.2926025390625 21.910736083984375 1209.8326416015625 22.34406852722168 L 1212.4925537109375 26.034069061279297 L 1210.3126220703125 26.034069061279297 L 1207.892578125 22.624069213867188 L 1205.642578125 22.624069213867188 L 1205.642578125 26.034069061279297 L 1203.9326171875 26.034069061279297 L 1203.9326171875 15.894068717956543 L 1207.70263671875 15.894068717956543 C 1209.249267578125 15.894068717956543 1210.35595703125 16.154067993164062 1211.0225830078125 16.674068450927734 C 1211.689208984375 17.194068908691406 1212.0225830078125 18.03073501586914 1212.0225830078125 19.18406867980957 M 1207.7725830078125 21.07406997680664 C 1208.7392578125 21.07406997680664 1209.3992919921875 20.924068450927734 1209.7525634765625 20.624069213867188 C 1210.0992431640625 20.32406997680664 1210.2725830078125 19.840736389160156 1210.2725830078125 19.174068450927734 C 1210.2725830078125 18.514068603515625 1210.092529296875 18.06073570251465 1209.7325439453125 17.814067840576172 C 1209.37255859375 17.567401885986328 1208.7359619140625 17.444068908691406 1207.8226318359375 17.444068908691406 L 1205.642578125 17.444068908691406 L 1205.642578125 21.07406997680664 L 1207.7725830078125 21.07406997680664 ZM 1220.4259033203125 15.894068717956543 L 1220.4259033203125 17.504070281982422 L 1215.015869140625 17.504070281982422 L 1215.015869140625 20.18406867980957 L 1219.8758544921875 20.18406867980957 L 1219.8758544921875 21.714069366455078 L 1215.015869140625 21.714069366455078 L 1215.015869140625 24.424068450927734 L 1220.6058349609375 24.424068450927734 L 1220.6058349609375 26.034069061279297 L 1213.305908203125 26.034069061279297 L 1213.305908203125 15.894068717956543 L 1220.4259033203125 15.894068717956543 ZM 1228.7254638671875 15.894068717956543 L 1228.7254638671875 17.504070281982422 L 1223.3154296875 17.504070281982422 L 1223.3154296875 20.18406867980957 L 1228.1754150390625 20.18406867980957 L 1228.1754150390625 21.714069366455078 L 1223.3154296875 21.714069366455078 L 1223.3154296875 24.424068450927734 L 1228.9053955078125 24.424068450927734 L 1228.9053955078125 26.034069061279297 L 1221.60546875 26.034069061279297 L 1221.60546875 15.894068717956543 L 1228.7254638671875 15.894068717956543 ZM 1229.905029296875 26.034069061279297 L 1229.905029296875 15.894068717956543 L 1231.614990234375 15.894068717956543 L 1231.614990234375 24.404069900512695 L 1236.2449951171875 24.404069900512695 L 1236.2449951171875 26.034069061279297 L 1229.905029296875 26.034069061279297 ZM 1238.3577880859375 23.724069595336914 L 1237.3477783203125 26.034069061279297 L 1235.517822265625 26.034069061279297 L 1239.98779296875 15.894068717956543 L 1241.81787109375 15.894068717956543 L 1246.287841796875 26.034069061279297 L 1244.457763671875 26.034069061279297 L 1243.4378662109375 23.724069595336914 L 1238.3577880859375 23.724069595336914 M 1242.747802734375 22.14406967163086 L 1240.8978271484375 17.964069366455078 L 1239.057861328125 22.14406967163086 L 1242.747802734375 22.14406967163086 ZM 1254.104248046875 15.894068717956543 L 1255.814208984375 15.894068717956543 L 1255.814208984375 26.034069061279297 L 1253.9642333984375 26.034069061279297 L 1248.2142333984375 18.634069442749023 L 1248.2142333984375 26.034069061279297 L 1246.5042724609375 26.034069061279297 L 1246.5042724609375 15.894068717956543 L 1248.2142333984375 15.894068717956543 L 1254.104248046875 23.464069366455078 L 1254.104248046875 15.894068717956543 ZM 1262.0745849609375 24.48406982421875 C 1262.6612548828125 24.48406982421875 1263.1678466796875 24.384069442749023 1263.5946044921875 24.18406867980957 C 1264.021240234375 23.98406982421875 1264.4678955078125 23.667402267456055 1264.9345703125 23.23406982421875 L 1266.0345458984375 24.36406898498535 C 1264.961181640625 25.557401657104492 1263.6578369140625 26.154069900512695 1262.12451171875 26.154069900512695 C 1260.5911865234375 26.154069900512695 1259.31787109375 25.660736083984375 1258.3045654296875 24.674068450927734 C 1257.291259765625 23.687402725219727 1256.7845458984375 22.437402725219727 1256.7845458984375 20.924068450927734 C 1256.7845458984375 19.417402267456055 1257.30126953125 18.160736083984375 1258.3345947265625 17.154067993164062 C 1259.367919921875 16.147403717041016 1260.6678466796875 15.644068717956543 1262.2344970703125 15.644068717956543 C 1263.807861328125 15.644068717956543 1265.1212158203125 16.22406768798828 1266.174560546875 17.384069442749023 L 1265.0845947265625 18.57406997680664 C 1264.6044921875 18.107402801513672 1264.1478271484375 17.784069061279297 1263.714599609375 17.604068756103516 C 1263.287841796875 17.417402267456055 1262.7845458984375 17.32406997680664 1262.20458984375 17.32406997680664 C 1261.1778564453125 17.32406997680664 1260.3145751953125 17.65740203857422 1259.614501953125 18.32406997680664 C 1258.9212646484375 18.98406982421875 1258.5745849609375 19.83073616027832 1258.5745849609375 20.86406898498535 C 1258.5745849609375 21.890735626220703 1258.9212646484375 22.750736236572266 1259.614501953125 23.444068908691406 C 1260.30126953125 24.137401580810547 1261.1212158203125 24.48406982421875 1262.0745849609375 24.48406982421875 ZM 1274.053955078125 15.894068717956543 L 1274.053955078125 17.504070281982422 L 1268.6439208984375 17.504070281982422 L 1268.6439208984375 20.18406867980957 L 1273.50390625 20.18406867980957 L 1273.50390625 21.714069366455078 L 1268.6439208984375 21.714069366455078 L 1268.6439208984375 24.424068450927734 L 1274.23388671875 24.424068450927734 L 1274.23388671875 26.034069061279297 L 1266.9339599609375 26.034069061279297 L 1266.9339599609375 15.894068717956543 L 1274.053955078125 15.894068717956543 ZM 1283.323486328125 19.18406867980957 C 1283.323486328125 20.857402801513672 1282.593505859375 21.910736083984375 1281.133544921875 22.34406852722168 L 1283.79345703125 26.034069061279297 L 1281.613525390625 26.034069061279297 L 1279.1934814453125 22.624069213867188 L 1276.9434814453125 22.624069213867188 L 1276.9434814453125 26.034069061279297 L 1275.2335205078125 26.034069061279297 L 1275.2335205078125 15.894068717956543 L 1279.0035400390625 15.894068717956543 C 1280.5501708984375 15.894068717956543 1281.6568603515625 16.154067993164062 1282.323486328125 16.674068450927734 C 1282.9901123046875 17.194068908691406 1283.323486328125 18.03073501586914 1283.323486328125 19.18406867980957 M 1279.073486328125 21.07406997680664 C 1280.0401611328125 21.07406997680664 1280.7001953125 20.924068450927734 1281.053466796875 20.624069213867188 C 1281.400146484375 20.32406997680664 1281.573486328125 19.840736389160156 1281.573486328125 19.174068450927734 C 1281.573486328125 18.514068603515625 1281.3934326171875 18.06073570251465 1281.033447265625 17.814067840576172 C 1280.6734619140625 17.567401885986328 1280.036865234375 17.444068908691406 1279.12353515625 17.444068908691406 L 1276.9434814453125 17.444068908691406 L 1276.9434814453125 21.07406997680664 L 1279.073486328125 21.07406997680664 Z" transform="matrix(4.203805923461914, 0, 0, 4.203805923461914, -4146.4111328125, 374.3089599609375)" style="fill: rgb(191, 191, 191); white-space: pre; color: rgb(191, 191, 191);"/></g></svg>